<svg width="10" height="10" viewBox="0 0 10 10" fill="none" xmlns="http://www.w3.org/2000/svg">
<g clip-path="url(#clip0_102_668)">
<path d="M10 5H8.75M1.25 5H0M5 1.25V0M5 10V8.75M8.53542 8.53542L7.65167 7.65167M2.34833 2.34833L1.46458 1.46458M8.53542 1.46458L7.65167 2.34833M2.34833 7.65167L1.46458 8.53542M5 2.5C4.33696 2.5 3.70107 2.76339 3.23223 3.23223C2.76339 3.70107 2.5 4.33696 2.5 5C2.5 5.66304 2.76339 6.29893 3.23223 6.76777C3.70107 7.23661 4.33696 7.5 5 7.5C5.66304 7.5 6.29893 7.23661 6.76777 6.76777C7.23661 6.29893 7.5 5.66304 7.5 5C7.5 4.33696 7.23661 3.70107 6.76777 3.23223C6.29893 2.76339 5.66304 2.5 5 2.5Z" stroke="black" stroke-miterlimit="10"/>
</g>
<defs>
<clipPath id="clip0_102_668">
<rect width="10" height="10" fill="white"/>
</clipPath>
</defs>
</svg>
