<svg width="19" height="19" viewBox="0 0 19 19" fill="none" xmlns="http://www.w3.org/2000/svg">
<g clip-path="url(#clip0_313_489)">
<path d="M9.5 19C14.7467 19 19 14.7467 19 9.5C19 4.25329 14.7467 0 9.5 0C4.25329 0 0 4.25329 0 9.5C0 14.7467 4.25329 19 9.5 19Z" fill="#F0F0F0"/>
<path d="M18.4091 12.8045C18.791 11.7753 19 10.6622 19 9.50013C19 8.33809 18.791 7.22496 18.4091 6.1958H0.590893C0.209037 7.22496 0 8.33809 0 9.50013C0 10.6622 0.209037 11.7753 0.590893 12.8045L9.5 13.6306L18.4091 12.8045Z" fill="#0052B4"/>
<path d="M9.49993 18.9999C13.5846 18.9999 17.0668 16.4218 18.409 12.8042H0.59082C1.9331 16.4218 5.41526 18.9999 9.49993 18.9999Z" fill="#D80027"/>
</g>
<defs>
<clipPath id="clip0_313_489">
<rect width="19" height="19" fill="white"/>
</clipPath>
</defs>
</svg>
