<svg width="19" height="19" viewBox="0 0 19 19" fill="none" xmlns="http://www.w3.org/2000/svg">
<g clip-path="url(#clip0_313_482)">
<path d="M9.5 19C14.7467 19 19 14.7467 19 9.5C19 4.25329 14.7467 0 9.5 0C4.25329 0 0 4.25329 0 9.5C0 14.7467 4.25329 19 9.5 19Z" fill="#F0F0F0"/>
<path d="M1.96371 3.71631C1.21748 4.6872 0.654787 5.80623 0.327148 7.0219H5.2693L1.96371 3.71631Z" fill="#0052B4"/>
<path d="M18.6725 7.02186C18.3449 5.80623 17.7822 4.6872 17.036 3.71631L13.7305 7.02186H18.6725Z" fill="#0052B4"/>
<path d="M0.327148 11.978C0.654824 13.1937 1.21751 14.3127 1.96371 15.2835L5.26919 11.978H0.327148Z" fill="#0052B4"/>
<path d="M15.2836 1.96375C14.3127 1.21751 13.1937 0.654824 11.978 0.327148V5.26926L15.2836 1.96375Z" fill="#0052B4"/>
<path d="M3.71606 17.0359C4.68696 17.7822 5.80599 18.3449 7.02162 18.6725V13.7305L3.71606 17.0359Z" fill="#0052B4"/>
<path d="M7.02158 0.327148C5.80595 0.654824 4.68692 1.21751 3.71606 1.96371L7.02158 5.26923V0.327148Z" fill="#0052B4"/>
<path d="M11.9783 18.6725C13.1939 18.3449 14.3129 17.7822 15.2838 17.036L11.9783 13.7305V18.6725Z" fill="#0052B4"/>
<path d="M13.7305 11.978L17.036 15.2836C17.7822 14.3127 18.3449 13.1937 18.6725 11.978H13.7305Z" fill="#0052B4"/>
<path d="M18.9196 8.26088H10.7392H10.7392V0.080416C10.3335 0.0276094 9.91997 0 9.5 0C9.07996 0 8.66649 0.0276094 8.26088 0.080416V8.26081V8.26084H0.080416C0.0276094 8.66649 0 9.08003 0 9.5C0 9.92004 0.0276094 10.3335 0.080416 10.7391H8.26081H8.26084V18.9196C8.66649 18.9724 9.07996 19 9.5 19C9.91997 19 10.3335 18.9724 10.7391 18.9196V10.7392V10.7392H18.9196C18.9724 10.3335 19 9.92004 19 9.5C19 9.08003 18.9724 8.66649 18.9196 8.26088Z" fill="#D80027"/>
<path d="M11.9783 11.9786L16.2175 16.2178C16.4125 16.0229 16.5985 15.8191 16.7759 15.6079L13.1465 11.9785H11.9783V11.9786Z" fill="#D80027"/>
<path d="M7.02173 11.9785H7.02166L2.78247 16.2177C2.97737 16.4127 3.18114 16.5987 3.39236 16.7761L7.02173 13.1467V11.9785Z" fill="#D80027"/>
<path d="M7.02177 7.02156V7.02149L2.78254 2.78223C2.58757 2.97712 2.40158 3.18089 2.22412 3.39212L5.85353 7.02153H7.02177V7.02156Z" fill="#D80027"/>
<path d="M11.9783 7.02181L16.2175 2.78251C16.0226 2.58753 15.8189 2.40154 15.6076 2.22412L11.9783 5.85353V7.02181Z" fill="#D80027"/>
</g>
<defs>
<clipPath id="clip0_313_482">
<rect width="19" height="19" fill="white"/>
</clipPath>
</defs>
</svg>
