<svg width="19" height="19" viewBox="0 0 19 19" fill="none" xmlns="http://www.w3.org/2000/svg">
<g clip-path="url(#clip0_313_485)">
<path d="M0.448578 6.60887C0.157566 7.52057 -3.71028e-05 8.49183 6.55184e-09 9.50006C-3.71028e-05 10.5083 0.157604 11.4797 0.448615 12.3914L9.5 12.8045L18.5514 12.3914C18.8424 11.4797 19 10.5083 19 9.50013C19 8.49187 18.8424 7.52057 18.5514 6.60883L9.5 6.1958L0.448578 6.60887Z" fill="#F0F0F0"/>
<path d="M18.5514 6.60883L9.49998 6.1958L0.448561 6.60883C0.362318 6.87913 0.288063 7.15474 0.22583 7.43492H18.774C18.7118 7.15471 18.6376 6.87906 18.5514 6.60883Z" fill="#D80027"/>
<path d="M0.22583 11.5654C0.287988 11.8456 0.362244 12.1212 0.448486 12.3915L0.449377 12.3915L9.49983 12.8045L18.5512 12.3915C18.6375 12.1212 18.7117 11.8456 18.7739 11.5654H0.22583Z" fill="#D80027"/>
<path d="M9.50008 18.9998C13.7386 18.9998 17.3282 16.2239 18.5515 12.3911H0.44873C1.67204 16.2239 5.2617 18.9998 9.50008 18.9998Z" fill="#6DA544"/>
<path d="M9.49987 3.72062e-10C5.26146 3.71097e-05 1.67187 2.77593 0.448486 6.6087L18.5512 6.60873C17.328 2.77589 13.7384 -3.7109e-05 9.49987 3.72062e-10Z" fill="#338AF3"/>
<path d="M4.34127 3.92409C4.34127 3.03432 4.9666 2.29102 5.80167 2.10866C5.67335 2.08061 5.54016 2.06543 5.40338 2.06543C4.37686 2.06543 3.54468 2.89757 3.54468 3.92413C3.54468 4.95068 4.37678 5.78282 5.40338 5.78282C5.54016 5.78282 5.67331 5.76761 5.80167 5.73959C4.96663 5.55716 4.34127 4.81386 4.34127 3.92409Z" fill="#F0F0F0"/>
<path d="M6.90023 4.76904L7.02603 5.15628H7.43319L7.10381 5.39563L7.22961 5.78287L6.90023 5.54355L6.57077 5.78287L6.69661 5.39563L6.36719 5.15628H6.77435L6.90023 4.76904Z" fill="#F0F0F0"/>
<path d="M8.19971 4.76904L8.32555 5.15628H8.73271L8.40329 5.39563L8.52913 5.78287L8.19971 5.54355L7.87029 5.78287L7.99613 5.39563L7.66675 5.15628H8.07387L8.19971 4.76904Z" fill="#F0F0F0"/>
<path d="M9.49935 4.76904L9.62515 5.15628H10.0323L9.70293 5.39563L9.82873 5.78287L9.49935 5.54355L9.16989 5.78287L9.29577 5.39563L8.96631 5.15628H9.37351L9.49935 4.76904Z" fill="#F0F0F0"/>
<path d="M10.7992 4.76904L10.925 5.15628H11.3321L11.0027 5.39563L11.1286 5.78287L10.7992 5.54355L10.4697 5.78287L10.5956 5.39563L10.2661 5.15628H10.6733L10.7992 4.76904Z" fill="#F0F0F0"/>
<path d="M12.0986 4.76904L12.2245 5.15628H12.6316L12.3023 5.39563L12.4281 5.78287L12.0986 5.54355L11.7692 5.78287L11.8951 5.39563L11.5657 5.15628H11.9728L12.0986 4.76904Z" fill="#F0F0F0"/>
<path d="M8.19971 3.41748L8.32555 3.80468H8.73271L8.40329 4.04407L8.52913 4.43127L8.19971 4.19195L7.87029 4.43127L7.99613 4.04407L7.66675 3.80468H8.07387L8.19971 3.41748Z" fill="#F0F0F0"/>
<path d="M9.49935 3.41748L9.62515 3.80468H10.0323L9.70293 4.04407L9.82873 4.43127L9.49935 4.19195L9.16989 4.43127L9.29577 4.04407L8.96631 3.80468H9.37351L9.49935 3.41748Z" fill="#F0F0F0"/>
<path d="M10.7992 3.41748L10.925 3.80468H11.3321L11.0027 4.04407L11.1286 4.43127L10.7992 4.19195L10.4697 4.43127L10.5956 4.04407L10.2661 3.80468H10.6733L10.7992 3.41748Z" fill="#F0F0F0"/>
<path d="M12.0986 3.41748L12.2245 3.80468H12.6316L12.3023 4.04407L12.4281 4.43127L12.0986 4.19195L11.7692 4.43127L11.8951 4.04407L11.5657 3.80468H11.9728L12.0986 3.41748Z" fill="#F0F0F0"/>
<path d="M9.49935 2.06543L9.62515 2.4527H10.0323L9.70293 2.69202L9.82873 3.07929L9.49935 2.83998L9.16989 3.07929L9.29577 2.69202L8.96631 2.4527H9.37351L9.49935 2.06543Z" fill="#F0F0F0"/>
<path d="M10.7992 2.06543L10.925 2.4527H11.3321L11.0027 2.69202L11.1286 3.07929L10.7992 2.83998L10.4697 3.07929L10.5956 2.69202L10.2661 2.4527H10.6733L10.7992 2.06543Z" fill="#F0F0F0"/>
<path d="M12.0986 2.06543L12.2245 2.4527H12.6316L12.3023 2.69202L12.4281 3.07929L12.0986 2.83998L11.7692 3.07929L11.8951 2.69202L11.5657 2.4527H11.9728L12.0986 2.06543Z" fill="#F0F0F0"/>
</g>
<defs>
<clipPath id="clip0_313_485">
<rect width="19" height="19" fill="white"/>
</clipPath>
</defs>
</svg>
