<svg version="1.0" xmlns="http://www.w3.org/2000/svg"
 width="300px" height="200px" viewBox="0 0 2080.000000 2080.000000"
 preserveAspectRatio="xMidYMid meet">

<g transform="translate(0.000000,2080.000000) scale(0.100000,-0.100000)"
fill="red" stroke="red">
<path d="M9890 16339 c-2191 -98 -4256 -893 -6035 -2323 -308 -247 -672 -571
-796 -707 -527 -578 -1020 -1277 -1414 -2004 -762 -1409 -1248 -3103 -1345
-4695 -5 -91 -10 -174 -9 -185 0 -11 22 88 49 220 55 273 97 466 141 640 606
2410 1858 4328 3677 5634 338 242 987 605 1482 829 1047 474 2142 745 3283
813 264 15 1008 7 1252 -15 1463 -131 2746 -540 3953 -1260 1612 -962 2824
-2390 3558 -4191 344 -845 596 -1886 650 -2685 8 -122 10 -118 53 85 18 82 34
151 36 154 12 12 19 -17 26 -111 4 -57 13 -131 20 -165 l11 -63 77 0 77 0 22
53 c39 95 53 141 97 315 24 95 46 176 49 180 13 12 26 -17 56 -128 69 -257
129 -394 176 -406 51 -13 96 52 188 271 51 121 80 175 96 175 14 0 13 -42 -9
-192 -11 -73 -21 -164 -23 -203 l-3 -70 123 -3 123 -3 19 44 c31 69 49 152 55
251 8 118 14 158 24 151 5 -2 28 -104 52 -225 l43 -221 54 3 55 3 27 136 c47
234 84 316 122 271 21 -24 34 -67 69 -226 39 -177 43 -186 73 -186 13 0 28 6
34 13 14 18 30 168 47 467 15 251 29 403 42 436 3 8 11 14 18 14 22 0 36 -93
46 -320 10 -210 28 -412 50 -537 l11 -63 42 0 41 0 18 93 c9 50 17 112 17 137
0 25 5 89 12 143 14 111 4 227 -53 622 -304 2119 -1011 3896 -2124 5340 -696
904 -1584 1690 -2565 2272 -558 331 -1257 660 -1739 818 -1397 457 -2806 664
-4131 604z"/>
<path d="M2850 10845 l0 -395 1110 0 c611 0 1110 -3 1110 -7 0 -5 -513 -390
-1140 -858 l-1140 -849 0 -398 0 -398 1890 0 1890 0 0 395 0 395 -1165 0
c-694 0 -1165 4 -1165 9 0 5 511 391 1135 857 l1135 848 0 398 0 398 -1830 0
-1830 0 0 -395z"/>
<path d="M7130 9590 l0 -1650 485 0 485 0 0 1650 0 1650 -485 0 -485 0 0
-1650z"/>
<path d="M8651 11223 c8 -10 332 -378 722 -820 389 -441 707 -804 707 -807 0
-3 -349 -375 -775 -826 -426 -451 -775 -822 -775 -825 0 -3 294 -5 653 -5
l652 0 500 571 c275 313 511 583 525 600 l26 30 516 -588 c284 -324 523 -594
531 -601 11 -9 168 -12 664 -10 l650 3 -778 824 c-445 470 -775 829 -772 835
4 6 328 374 720 818 392 444 713 810 713 813 0 3 -282 5 -627 5 l-628 0 -494
-576 -495 -576 -20 24 c-12 13 -234 272 -495 576 l-474 552 -630 0 c-595 0
-629 -1 -616 -17z"/>
<path d="M12532 9543 c20 -21 358 -391 752 -822 l717 -785 -94 -95 c-231 -236
-1445 -1480 -1481 -1518 l-40 -43 679 1 680 0 545 600 c426 470 546 598 555
587 5 -8 250 -278 544 -601 l533 -587 681 0 680 0 -189 193 c-760 772 -1419
1452 -1419 1463 0 7 322 365 715 795 393 430 728 797 743 815 l28 34 -653 0
-653 0 -485 -545 c-267 -300 -497 -560 -511 -577 l-26 -31 -513 577 -513 576
-655 0 -656 0 36 -37z" fill="white" stroke="white"/>
<path d="M2750 6845 l0 -565 4578 0 4577 0 565 565 565 565 -5143 0 -5142 0 0
-565z m461 212 c31 -21 78 -88 79 -113 0 -12 -69 -36 -82 -28 -4 3 -8 12 -8
20 0 25 -38 54 -73 54 -68 0 -103 -72 -94 -192 5 -73 24 -112 62 -130 41 -18
74 -2 96 47 11 25 23 45 26 45 19 0 73 -26 73 -35 -1 -26 -40 -93 -69 -118
-39 -33 -69 -41 -121 -34 -56 7 -95 39 -127 105 -24 50 -28 68 -28 147 0 76 4
99 26 146 24 51 59 87 99 102 38 14 108 6 141 -16z m213 -49 c14 -40 35 -98
45 -128 12 -34 21 -49 25 -40 3 8 21 66 41 128 l36 112 40 0 c21 0 39 -3 39
-8 0 -13 -147 -418 -164 -450 -20 -39 -47 -54 -89 -50 -29 3 -32 6 -35 41 -3
31 0 37 17 37 32 0 52 11 62 36 7 19 -6 60 -61 202 -39 97 -70 180 -70 185 0
4 20 7 44 7 l44 0 26 -72z m374 -4 l38 -76 40 74 c35 66 42 73 72 76 65 6 65
1 0 -125 l-61 -118 67 -124 c36 -69 66 -126 66 -128 0 -2 -22 -3 -49 -3 l-50
0 -42 80 -43 80 -44 -80 -44 -80 -49 0 -49 0 67 128 68 129 -58 110 c-31 61
-57 116 -57 122 0 6 18 11 45 11 l45 0 38 -76z m340 -84 l4 -155 77 155 77
155 40 0 39 0 3 -247 2 -248 -40 0 -40 0 -1 153 0 152 -77 -152 -77 -153 -42
0 -43 0 0 243 c0 134 3 247 7 251 4 4 21 6 38 4 l30 -3 3 -155z m610 113 l3
-43 -105 0 -106 0 0 -55 0 -55 95 0 95 0 0 -45 0 -45 -95 0 -95 0 0 -60 0 -60
105 0 105 0 0 -45 0 -45 -150 0 -150 0 0 243 c0 134 3 247 7 251 4 3 70 5 147
4 l141 -3 3 -42z m473 24 c31 -21 78 -88 79 -113 0 -12 -69 -36 -82 -28 -4 3
-8 12 -8 20 0 25 -38 54 -73 54 -68 0 -103 -72 -94 -192 5 -73 24 -112 62
-130 41 -18 74 -2 96 47 11 25 23 45 26 45 19 0 73 -26 73 -35 -1 -26 -40 -93
-69 -118 -39 -33 -69 -41 -121 -34 -56 7 -95 39 -127 105 -24 50 -28 68 -28
147 0 76 4 99 26 146 24 51 59 87 99 102 38 14 108 6 141 -16z m427 -24 l3
-43 -60 0 -61 0 0 -205 0 -205 -45 0 -45 0 0 205 0 205 -55 0 -55 0 0 38 c0
21 3 42 7 46 4 3 75 5 157 4 l151 -3 3 -42z m286 24 c79 -52 80 -221 1 -273
-14 -9 -54 -19 -90 -22 l-65 -5 0 -88 0 -89 -45 0 -45 0 0 243 c0 134 3 247 8
251 14 15 208 1 236 -17z m392 -2 c66 -38 99 -114 99 -225 0 -98 -15 -147 -58
-197 -92 -105 -246 -74 -302 60 -54 129 -9 323 86 370 51 25 124 22 175 -8z
m232 -135 l4 -155 77 155 77 155 40 0 39 0 3 -247 2 -248 -40 0 -40 0 -1 153
0 152 -77 -152 -77 -153 -42 0 -43 0 0 243 c0 134 3 247 7 251 4 4 21 6 38 4
l30 -3 3 -155z m610 113 l3 -43 -60 0 -61 0 0 -205 0 -205 -45 0 -45 0 0 205
0 205 -55 0 -55 0 0 38 c0 21 3 42 7 46 4 3 75 5 157 4 l151 -3 3 -42z m340 0
l3 -43 -105 0 -106 0 0 -55 0 -55 95 0 95 0 0 -45 0 -45 -95 0 -95 0 0 -60 0
-60 105 0 105 0 0 -45 0 -45 -150 0 -150 0 0 243 c0 134 3 247 7 251 4 3 70 5
147 4 l141 -3 3 -42z m380 -205 l2 -248 -45 0 -45 0 0 205 0 205 -55 0 -55 0
0 -165 c0 -186 -10 -228 -56 -245 -15 -6 -40 -8 -56 -5 -25 6 -28 11 -28 45 0
32 4 39 23 42 22 3 22 4 25 198 1 107 4 201 7 208 3 10 38 12 142 10 l138 -3
3 -247z m160 150 l3 -98 65 0 c87 0 127 -20 154 -74 35 -74 21 -160 -35 -204
-25 -20 -40 -22 -151 -22 l-124 0 0 243 c0 134 3 247 7 251 4 4 23 6 43 4 l35
-3 3 -97z m390 0 l3 -98 69 0 69 0 3 98 3 97 40 0 40 0 3 -247 2 -248 -45 0
-45 0 0 105 0 105 -70 0 -70 0 0 -105 0 -105 -45 0 -45 0 0 243 c0 134 3 247
7 251 4 4 23 6 43 4 l35 -3 3 -97z m400 0 l3 -98 65 0 c87 0 127 -20 154 -74
35 -74 21 -160 -35 -204 -25 -20 -40 -22 -151 -22 l-124 0 0 243 c0 134 3 247
7 251 4 4 23 6 43 4 l35 -3 3 -97z m382 -148 l0 -250 -40 0 -40 0 0 250 0 250
40 0 40 0 0 -250z m368 203 l3 -43 -105 0 -106 0 0 -55 0 -55 95 0 95 0 0 -45
0 -45 -95 0 -95 0 0 -60 0 -60 105 0 105 0 0 -45 0 -45 -150 0 -150 0 0 243
c0 134 3 247 7 251 4 3 70 5 147 4 l141 -3 3 -42z m473 24 c31 -21 78 -88 79
-113 0 -12 -69 -36 -82 -28 -4 3 -8 12 -8 20 0 25 -38 54 -73 54 -68 0 -103
-72 -94 -192 5 -73 24 -112 62 -130 41 -18 74 -2 96 47 11 25 23 45 26 45 19
0 73 -26 73 -35 -1 -26 -40 -93 -69 -118 -39 -33 -69 -41 -121 -34 -56 7 -95
39 -127 105 -24 50 -28 68 -28 147 0 76 4 99 26 146 24 51 59 87 99 102 38 14
108 6 141 -16z m278 1 c5 -13 19 -79 31 -148 13 -69 26 -128 29 -133 4 -4 20
55 35 130 15 76 30 146 32 156 4 14 17 17 65 17 l59 0 0 -250 0 -250 -40 0
-40 0 -1 163 -1 162 -34 -160 c-18 -88 -33 -161 -34 -163 0 -2 -19 -2 -42 0
l-42 3 -31 165 -30 165 -3 -167 -2 -168 -40 0 -40 0 0 243 c0 134 3 247 7 250
3 4 30 7 60 7 46 0 55 -3 62 -22z m619 -25 l3 -43 -105 0 -106 0 0 -55 0 -55
95 0 95 0 0 -45 0 -45 -95 0 -95 0 0 -60 0 -60 105 0 105 0 0 -45 0 -45 -150
0 -150 0 0 243 c0 134 3 247 7 251 4 3 70 5 147 4 l141 -3 3 -42z m323 24 c31
-21 78 -88 79 -113 0 -12 -69 -36 -82 -28 -4 3 -8 12 -8 20 0 25 -38 54 -73
54 -68 0 -103 -72 -94 -192 5 -73 24 -112 62 -130 41 -18 74 -2 96 47 11 25
23 45 26 45 19 0 73 -26 73 -35 -1 -26 -40 -93 -69 -118 -39 -33 -69 -41 -121
-34 -56 7 -95 39 -127 105 -24 50 -28 68 -28 147 0 76 4 99 26 146 24 51 59
87 99 102 38 14 108 6 141 -16z m217 -137 l4 -155 77 155 77 155 40 0 39 0 3
-247 2 -248 -40 0 -40 0 -1 153 0 152 -77 -152 -77 -153 -42 0 -43 0 0 243 c0
134 3 247 7 251 4 4 21 6 38 4 l30 -3 3 -155z" />
<path d="M5780 6920 l0 -70 41 0 c52 0 75 13 83 46 15 60 -21 94 -100 94 -23
0 -24 -3 -24 -70z"  />
<path d="M6170 6962 c-65 -66 -48 -257 27 -291 100 -46 174 90 133 241 -22 77
-106 103 -160 50z"/>
<path d="M8050 6730 l0 -60 65 0 c70 0 85 11 85 64 0 41 -25 56 -91 56 l-59 0
0 -60z" />
<path d="M8840 6730 l0 -60 65 0 c70 0 85 11 85 64 0 41 -25 56 -91 56 l-59 0
0 -60z" />
</g>
</svg>
